<?xml version="1.0" encoding="UTF-8"?>
<svg version="1.1" xmlns="http://www.w3.org/2000/svg" width="250" height="105">
<path d="M0 0 C1.3096875 -0.00257812 2.619375 -0.00515625 3.96875 -0.0078125 C6.76691691 0.09742829 8.8511412 0.39300197 11.5 1.125 C11.51981934 2.02331543 11.53963867 2.92163086 11.56005859 3.84716797 C11.63809261 7.17590078 11.72478114 10.50417256 11.81738281 13.83251953 C11.85569674 15.2738374 11.89054543 16.71525168 11.921875 18.15673828 C11.96747446 20.22723886 12.02547444 22.29707433 12.0859375 24.3671875 C12.13306885 26.23673096 12.13306885 26.23673096 12.18115234 28.14404297 C12.19682309 31.24041776 12.19682309 31.24041776 14.5 33.125 C14.5 34.115 14.5 35.105 14.5 36.125 C4.6 36.125 -5.3 36.125 -15.5 36.125 C-14.51 35.135 -13.52 34.145 -12.5 33.125 C-12.1692937 30.61771968 -12.0117282 28.34362613 -11.98828125 25.83203125 C-11.96135445 24.77298836 -11.96135445 24.77298836 -11.93388367 23.69255066 C-11.87976822 21.44092759 -11.84588278 19.18951657 -11.8125 16.9375 C-11.77932781 15.40947569 -11.74483823 13.88147937 -11.70898438 12.35351562 C-11.62404175 8.61083011 -11.55723752 4.86820759 -11.5 1.125 C-7.608559 0.049621 -4.04454106 -0.00796169 0 0 Z M-10.5 2.125 C-10.52891546 6.58331982 -10.54676981 11.04161569 -10.5625 15.5 C-10.57087891 16.77101563 -10.57925781 18.04203125 -10.58789062 19.3515625 C-10.59111328 20.56328125 -10.59433594 21.775 -10.59765625 23.0234375 C-10.60289307 24.14411621 -10.60812988 25.26479492 -10.61352539 26.41943359 C-10.68621466 29.09367343 -10.68621466 29.09367343 -9.5 31.125 C-4.22 31.125 1.06 31.125 6.5 31.125 C6.5 29.475 6.5 27.825 6.5 26.125 C1.22 26.125 -4.06 26.125 -9.5 26.125 C-9.35937689 22.68721369 -9.21273071 19.24986829 -9.0625 15.8125 C-9.02318359 14.83603516 -8.98386719 13.85957031 -8.94335938 12.85351562 C-8.90146484 11.91572266 -8.85957031 10.97792969 -8.81640625 10.01171875 C-8.77974854 9.14764404 -8.74309082 8.28356934 -8.70532227 7.39331055 C-8.5 5.125 -8.5 5.125 -7.5 2.125 C-8.49 2.125 -9.48 2.125 -10.5 2.125 Z M8.5 23.125 C8.17 23.785 7.84 24.445 7.5 25.125 C8.16 25.125 8.82 25.125 9.5 25.125 C9.17 24.465 8.84 23.805 8.5 23.125 Z " fill="#531C0B" transform="translate(37.5,30.875)"/>
<path d="M0 0 C4.07707365 3.50817965 5.49140841 6.48231186 6.0625 11.8125 C5.41582308 17.84815123 2.55639861 21.7765499 -1.3125 26.3125 C-0.10557362 29.10351724 0.90450243 30.91714028 3.66796875 32.3125 C5.652146 33.04295817 7.66879542 33.68372316 9.6875 34.3125 C9.6875 34.9725 9.6875 35.6325 9.6875 36.3125 C3.22138334 35.78465374 -1.65540213 34.14102354 -6.25 29.25 C-8.35202507 27.27537039 -9.58180277 26.73342628 -12.25 25.8125 C-17.05022842 24.14091208 -20.30241766 22.28675184 -22.6875 17.625 C-23.61567534 12.7056707 -23.73844028 7.99897149 -21.3359375 3.47265625 C-15.70020294 -3.96287741 -7.68304493 -3.91400402 0 0 Z M-15.6875 1.75 C-18.05852184 5.48891905 -18.51260546 8.9175912 -18.3125 13.3125 C-17.47682595 16.63605862 -15.9133619 19.33214638 -14.125 22.25 C-10.96084589 24.10484896 -7.78365018 24.12288526 -4.3125 23.3125 C-1.07004583 20.67800598 0.34832457 19.17144225 1.09375 15.0859375 C1.28231596 10.38750227 0.75738505 7.04021756 -2.3125 3.3125 C-4.84715657 0.68731998 -6.1307572 0.33521785 -9.8125 -0.125 C-13.26869401 0.06548773 -13.26869401 0.06548773 -15.6875 1.75 Z " fill="#035125" transform="translate(85.3125,29.6875)"/>
<path d="M0 0 C1 1 1 1 1.375 3.75 C0.88549712 7.99235832 -0.81835707 9.29560351 -4 12 C-2.02 14.64 -0.04 17.28 2 20 C2.72256829 15.51866426 2.72256829 15.51866426 3 11 C4.32 11 5.64 11 7 11 C7.17835515 15.54805635 6.99785435 18.8794254 5 23 C9.75108017 27.72138592 13.38074056 29.83872641 20 31 C20 31.66 20 32.32 20 33 C14.55173546 34.36206614 11.73001152 33.84728618 6.796875 31.203125 C5 30 5 30 3.40625 28.33984375 C2.9421875 27.89769531 2.478125 27.45554687 2 27 C-0.35065178 27.28566879 -0.35065178 27.28566879 -3 28 C-8.0155167 28.35825119 -10.95628876 28.09224977 -15 25 C-16.44430855 22.11138291 -16.37688506 20.20352299 -16 17 C-13.5625 14.25 -13.5625 14.25 -11 12 C-9.73696669 9.86009947 -9.73696669 9.86009947 -10.0625 6.5625 C-10 3 -10 3 -8 0 C-4.69676014 -1.10107995 -3.29495231 -0.86709271 0 0 Z M-5 2 C-6.35618499 3.12534105 -6.35618499 3.12534105 -6.0625 6.0625 C-6.041875 7.031875 -6.02125 8.00125 -6 9 C-3.92022703 7.77409808 -3.92022703 7.77409808 -2 6 C-2 4.68 -2 3.36 -2 2 C-2.99 2 -3.98 2 -5 2 Z M-9 13 C-10.95448191 15.73627468 -12.0338568 17.27207886 -11.875 20.6875 C-11.13021208 23.33345392 -11.13021208 23.33345392 -8 25 C-5.66800612 25.07905064 -3.33167378 25.08798769 -1 25 C-1.76429661 23.55901389 -2.53672555 22.12233946 -3.3125 20.6875 C-3.74175781 19.88699219 -4.17101562 19.08648437 -4.61328125 18.26171875 C-5.90059554 16.16212728 -7.18406708 14.64552279 -9 13 Z " fill="#035025" transform="translate(110,28)"/>
<path d="M0 0 C1.65 0 3.3 0 5 0 C5 9.24 5 18.48 5 28 C-7.65486726 29.15044248 -7.65486726 29.15044248 -12.75 25.875 C-14.77788503 22.83317245 -15.11187499 19.57300746 -15 16 C-13.32427902 11.81069754 -11.1069779 9.81471117 -7 8 C-1.81355932 7.59322034 -1.81355932 7.59322034 1 9 C0.67 6.03 0.34 3.06 0 0 Z M-8.1875 11.5625 C-10.67468276 14.90733199 -10.50183175 16.91365579 -10 21 C-9.06150487 23.98341617 -9.06150487 23.98341617 -7 26 C-3.84010585 26.38692581 -1.86120256 26.43060128 1 25 C1.10807131 23.06372231 1.1856225 21.12572244 1.25 19.1875 C1.29640625 18.10855469 1.3428125 17.02960937 1.390625 15.91796875 C1.28334207 12.91840063 1.28334207 12.91840063 -0.828125 11.11328125 C-3.93713404 9.51963453 -5.33291006 9.52350719 -8.1875 11.5625 Z " fill="#035025" transform="translate(219,27)"/>
<path d="M0 0 C1.65 0 3.3 0 5 0 C5.33 5.28 5.66 10.56 6 16 C7.65 16 9.3 16 11 16 C12.99616554 14.00383446 12.40983427 10.18298037 12.5625 7.4375 C12.60568359 6.72658203 12.64886719 6.01566406 12.69335938 5.28320312 C12.79971777 3.52238088 12.90038846 1.7612168 13 0 C14.65 0 16.3 0 18 0 C18 6.6 18 13.2 18 20 C15.33333333 20 12.66666667 20 10 20 C9.01 20.226875 8.02 20.45375 7 20.6875 C4 21 4 21 2.1875 19.875 C-0.44028274 15.72586936 -0.11064927 10.95427813 -0.0625 6.1875 C-0.05347656 5.02605469 -0.04445312 3.86460938 -0.03515625 2.66796875 C-0.02355469 1.78753906 -0.01195312 0.90710937 0 0 Z " fill="#035026" transform="translate(183,35)"/>
<path d="M0 0 C0.33 1.65 0.66 3.3 1 5 C0.34 4.67 -0.32 4.34 -1 4 C-5.02985632 2.65671456 -7.74421055 2.59468672 -12 3 C-14.80576633 4.65468271 -15.70739586 5.92915014 -16.5625 9.05859375 C-17.3965319 14.21047829 -17.03012072 17.56303752 -14 22 C-10.28475712 24.47682859 -7.30361706 24.43538538 -3 24 C-0.11785113 23.11785113 -0.11785113 23.11785113 2 22 C1.1875 24.4375 1.1875 24.4375 0 27 C-5.48697525 28.82899175 -10.12679496 28.68976898 -15.3125 26.25 C-19.55097442 23.89806224 -21.46042646 21.61872063 -23 17 C-23.58700933 10.89510298 -22.46454979 7.869097 -19 3 C-12.89487182 -1.69625245 -7.22799757 -1.02357264 0 0 Z " fill="#035025" transform="translate(146,28)"/>
<path d="M0 0 C2.45243461 1.90063682 3.62927427 3.25854855 5 6 C5.51441592 10.45827127 5.30466095 12.50146391 2.9375 16.375 C-0.60208114 19.53802995 -2.28122303 20.08135822 -7 20 C-13.04958678 18.11570248 -13.04958678 18.11570248 -15.4375 15.3125 C-16.28939237 11.81027582 -16.70875677 8.53676648 -16 5 C-11.06747087 -1.10075971 -7.37421222 -1.73202137 0 0 Z M-9.125 2.125 C-11.68357651 4.68357651 -11.85688672 6.42216788 -12 10 C-11.07417343 13.13356684 -10.31531305 14.68468695 -8 17 C-4.43407381 16.83582968 -4.43407381 16.83582968 -1 16 C0.72537889 12.54924222 0.49595093 8.7732483 0 5 C-1.62724946 2.36861794 -1.62724946 2.36861794 -4 1 C-6.95884321 0.76605614 -6.95884321 0.76605614 -9.125 2.125 Z " fill="#035125" transform="translate(175,36)"/>
<path d="M0 0 C1.65 0 3.3 0 5 0 C5 9.24 5 18.48 5 28 C3.35 28 1.7 28 0 28 C0 18.76 0 9.52 0 0 Z " fill="#035025" transform="translate(150,27)"/>
<path d="M0 0 C2.4375 0.375 2.4375 0.375 5 1 C6.39935013 3.79870027 6.25265405 5.90498792 6 9 C4.75 10.9375 4.75 10.9375 3 12 C0.875 11.8125 0.875 11.8125 -1 11 C-2.38550197 8.22899606 -2.1877467 6.0665294 -2 3 C-1.34 2.01 -0.68 1.02 0 0 Z M1 2 C-0.35618499 3.12534105 -0.35618499 3.12534105 -0.0625 6.0625 C-0.041875 7.031875 -0.02125 8.00125 0 9 C1.32 9 2.64 9 4 9 C4 6.69 4 4.38 4 2 C3.01 2 2.02 2 1 2 Z " fill="#8B00FF" transform="translate(112,67)"/>
<path d="M0 0 C0.66 0 1.32 0 2 0 C2 2.64 2 5.28 2 8 C2.66 8.33 3.32 8.66 4 9 C3.34 9 2.68 9 2 9 C2 9.99 2 10.98 2 12 C1.34 12 0.68 12 0 12 C0 11.01 0 10.02 0 9 C-1.65 9 -3.3 9 -5 9 C-3.7580393 5.56072421 -2.44259716 2.74792181 0 0 Z M-1 4 C-1.66 5.32 -2.32 6.64 -3 8 C-2.01 8 -1.02 8 0 8 C-0.33 6.68 -0.66 5.36 -1 4 Z " fill="#8800FF" transform="translate(132,67)"/>
<path d="M0 0 C1.65 0.33 3.3 0.66 5 1 C5.6875 2.75 5.6875 2.75 6 5 C4.5625 7.25 4.5625 7.25 3 9 C3.99 9.33 4.98 9.66 6 10 C6 10.66 6 11.32 6 12 C3.69 12 1.38 12 -1 12 C-0.42437172 8.66135596 0.59063616 7.30897368 3 5 C3.33 4.01 3.66 3.02 4 2 C2.35 2 0.7 2 -1 2 C-0.67 1.34 -0.34 0.68 0 0 Z " fill="#8800FF" transform="translate(103,67)"/>
<path d="M0 0 C1.65 0.33 3.3 0.66 5 1 C5.6875 2.75 5.6875 2.75 6 5 C4.5625 7.25 4.5625 7.25 3 9 C3.99 9.33 4.98 9.66 6 10 C6 10.66 6 11.32 6 12 C3.69 12 1.38 12 -1 12 C-0.67 10.68 -0.34 9.36 0 8 C0.66 8 1.32 8 2 8 C2.66 6.02 3.32 4.04 4 2 C2.35 2 0.7 2 -1 2 C-0.67 1.34 -0.34 0.68 0 0 Z " fill="#8C00FF" transform="translate(120,67)"/>
<path d="M0 0 C0 0.33 0 0.66 0 1 C-1.65 1.33 -3.3 1.66 -5 2 C-2.525 3.98 -2.525 3.98 0 6 C-0.33 7.32 -0.66 8.64 -1 10 C-2.98 10.33 -4.96 10.66 -7 11 C-7 10.34 -7 9.68 -7 9 C-5.35 9 -3.7 9 -2 9 C-2 8.01 -2 7.02 -2 6 C-4.475 5.01 -4.475 5.01 -7 4 C-7 2.68 -7 1.36 -7 0 C-4.3333581 -1.33332095 -2.83319697 -0.67102033 0 0 Z " fill="#8800FF" transform="translate(69,68)"/>
<path d="M0 0 C1.65 0.33 3.3 0.66 5 1 C5.33 2.32 5.66 3.64 6 5 C4.35 5.33 2.7 5.66 1 6 C2.32 6.66 3.64 7.32 5 8 C1.25 9.125 1.25 9.125 -1 8 C-1.75 6.1875 -1.75 6.1875 -2 4 C-1.0625 1.75 -1.0625 1.75 0 0 Z M1 1 C1 1.66 1 2.32 1 3 C1.99 2.67 2.98 2.34 4 2 C3.01 1.67 2.02 1.34 1 1 Z " fill="#8800FF" transform="translate(91,70)"/>
<path d="M0 0 C1.99954746 -0.04254356 4.00041636 -0.04080783 6 0 C7 1 7 1 7.09765625 2.84765625 C7.06510417 4.8984375 7.03255208 6.94921875 7 9 C6.34 9 5.68 9 5 9 C4.67 6.69 4.34 4.38 4 2 C3.67 2 3.34 2 3 2 C2.34 4.31 1.68 6.62 1 9 C0.67 9 0.34 9 0 9 C0 6.03 0 3.06 0 0 Z " fill="#8D00FF" transform="translate(74,70)"/>
<path d="M0 0 C1.2065625 0.0309375 1.2065625 0.0309375 2.4375 0.0625 C2.4375 0.7225 2.4375 1.3825 2.4375 2.0625 C1.1175 2.0625 -0.2025 2.0625 -1.5625 2.0625 C-1.5625 3.3825 -1.5625 4.7025 -1.5625 6.0625 C-0.2425 6.7225 1.0775 7.3825 2.4375 8.0625 C0.625 8.75 0.625 8.75 -1.5625 9.0625 C-3.375 7.9375 -3.375 7.9375 -4.5625 6.0625 C-3.99439756 0.09742433 -3.99439756 0.09742433 0 0 Z " fill="#8800FF" transform="translate(86.5625,69.9375)"/>
<path d="M0 0 C0.66 0 1.32 0 2 0 C2 2.97 2 5.94 2 9 C1.34 9 0.68 9 0 9 C0 6.03 0 3.06 0 0 Z " fill="#8700FF" transform="translate(70,70)"/>
<path d="M0 0 C0.66 0 1.32 0 2 0 C2 0.99 2 1.98 2 3 C1.34 3 0.68 3 0 3 C0 2.01 0 1.02 0 0 Z " fill="#541C0B" transform="translate(36,58)"/>
<path d="M0 0 C0.66 0 1.32 0 2 0 C2 0.66 2 1.32 2 2 C1.34 2 0.68 2 0 2 C0 1.34 0 0.68 0 0 Z " fill="#8900FF" transform="translate(70,67)"/>
</svg>
